<svg xmlns="http://www.w3.org/2000/svg" viewBox="0 0 512.303 512.303" width="512" height="512"><path d="M256.014.134C114.629.164.038 114.804.068 256.189a256 256 0 0040.479 138.1L.718 497.628c-2.121 5.496.615 11.671 6.111 13.792 1.229.474 2.534.717 3.851.715a10.376 10.376 0 003.584-.619l106.667-38.08c120.012 74.745 277.894 38.048 352.638-81.965s38.048-277.894-81.965-352.638A255.996 255.996 0 00256.014.134z" data-original="#4CAF50" class="active-path" data-old_color="#4CAF50" fill="#474747"/><path d="M378.062 299.889s-26.133-12.8-42.496-21.333c-18.517-9.536-40.277 8.32-50.517 18.475a128.368 128.368 0 01-42.816-27.179 128.265 128.265 0 01-27.179-42.816c10.155-10.261 27.968-32 18.475-50.517-8.427-16.384-21.333-42.496-21.333-42.517a10.666 10.666 0 00-9.515-5.867h-21.333c-31.068 5.366-53.657 32.474-53.333 64 0 33.493 40.085 97.835 67.115 124.885s91.371 67.115 124.885 67.115c31.526.324 58.634-22.266 64-53.333v-21.333a10.669 10.669 0 00-5.953-9.58z" data-original="#FAFAFA" fill="#fafafa"/></svg>