<svg xmlns="http://www.w3.org/2000/svg" viewBox="0 0 512.002 512.002" width="512" height="512"><path d="M443.734 236.557l-112.939-9.813a863.615 863.615 0 00-149.717 0L68.14 236.557c-38.659 3.187-68.348 35.6-68.139 74.389V412.28c-.204 38.835 29.557 71.265 68.267 74.389l112.939 9.813c24.832 2.133 49.835 3.243 74.859 3.243 25.024 0 50.027-1.067 74.859-3.243l112.939-9.813c38.667-3.188 68.359-35.613 68.139-74.411V310.925c.191-38.827-29.567-71.244-68.269-74.368z" data-original="#E53935" class="active-path" data-old_color="#E53935" fill="#fff"/><path d="M96.001 438.946c-5.891 0-10.667-4.776-10.667-10.667v-128c0-5.891 4.776-10.667 10.667-10.667s10.667 4.776 10.667 10.667v128c0 5.892-4.776 10.667-10.667 10.667z" data-original="#FAFAFA" fill="#fafafa"/><path d="M138.668 310.946H53.334c-5.891 0-10.667-4.776-10.667-10.667s4.776-10.667 10.667-10.667h85.333c5.891 0 10.667 4.776 10.667 10.667s-4.775 10.667-10.666 10.667z" data-original="#FAFAFA" fill="#fafafa"/><path d="M96.001 118.946a10.666 10.666 0 01-8.533-4.267l-64-85.333c-3.536-4.712-2.582-11.398 2.13-14.934s11.398-2.582 14.934 2.13l.003.004 55.467 73.941 55.467-73.941c3.535-4.713 10.22-5.668 14.933-2.133 4.713 3.535 5.668 10.221 2.133 14.933l-64 85.333a10.665 10.665 0 01-8.534 4.267z" data-original="#E53935" class="active-path" data-old_color="#E53935" fill="#fff"/><path d="M96.001 204.28c-5.891 0-10.667-4.776-10.667-10.667V108.28c0-5.891 4.776-10.667 10.667-10.667s10.667 4.776 10.667 10.667v85.333c0 5.891-4.776 10.667-10.667 10.667zm117.333 0c-35.346 0-64-28.654-64-64v-21.333c0-35.346 28.654-64 64-64s64 28.654 64 64v21.333c0 35.346-28.653 64-64 64zm0-128c-23.564 0-42.667 19.103-42.667 42.667v21.333c0 23.564 19.103 42.667 42.667 42.667s42.667-19.103 42.667-42.667v-21.333c0-23.565-19.102-42.667-42.667-42.667zm149.334 128c-35.346 0-64-28.654-64-64V65.613c0-5.891 4.776-10.667 10.667-10.667s10.667 4.776 10.667 10.667v74.667c0 23.564 19.103 42.667 42.667 42.667s42.667-19.103 42.667-42.667V65.613c0-5.891 4.776-10.667 10.667-10.667s10.667 4.776 10.667 10.667v74.667c-.002 35.346-28.656 64-64.002 64z" data-original="#E53935" class="active-path" data-old_color="#E53935" fill="#fff"/><path d="M458.668 204.28c-53.333 0-53.333-56.192-53.333-74.667 0-5.891 4.776-10.667 10.667-10.667s10.667 4.776 10.667 10.667c0 44.267 12.8 53.333 32 53.333 5.891 0 10.667 4.776 10.667 10.667s-4.777 10.667-10.668 10.667z" data-original="#E53935" class="active-path" data-old_color="#E53935" fill="#fff"/><g fill="#fafafa"><path d="M192.001 438.946c-23.564 0-42.667-19.102-42.667-42.667v-53.333c0-5.891 4.776-10.667 10.667-10.667s10.667 4.776 10.667 10.667v53.333c0 11.782 9.551 21.333 21.333 21.333 11.782 0 21.333-9.551 21.333-21.333v-53.333c0-5.891 4.776-10.667 10.667-10.667s10.667 4.776 10.667 10.667v53.333c0 23.565-19.103 42.667-42.667 42.667zm74.667 0c-5.891 0-10.667-4.776-10.667-10.667v-128c0-5.891 4.776-10.667 10.667-10.667s10.667 4.776 10.667 10.667v128c-.001 5.892-4.776 10.667-10.667 10.667zm181.333 0h-21.333c-23.564 0-42.667-19.102-42.667-42.667v-21.333c0-23.564 19.103-42.667 42.667-42.667s42.667 19.103 42.667 42.667v10.667c0 5.891-4.776 10.667-10.667 10.667h-53.333c0 11.782 9.551 21.333 21.333 21.333h21.333c5.891 0 10.667 4.776 10.667 10.667s-4.776 10.666-10.667 10.666zm-42.667-64h42.667c0-11.782-9.551-21.333-21.333-21.333-11.782 0-21.334 9.551-21.334 21.333z" data-original="#FAFAFA"/><path d="M309.334 438.946c-29.455 0-53.333-23.878-53.333-53.333s23.878-53.333 53.333-53.333 53.333 23.878 53.333 53.333-23.877 53.333-53.333 53.333zm0-85.333c-17.673 0-32 14.327-32 32s14.327 32 32 32 32-14.327 32-32-14.326-32-32-32z" data-original="#FAFAFA"/></g></svg>